<?xml version="1.0" encoding="utf-8"?>
<!-- Generator: Adobe Illustrator 19.2.1, SVG Export Plug-In . SVG Version: 6.00 Build 0)  -->
<svg version="1.1" id="Layer_1" xmlns="http://www.w3.org/2000/svg" xmlns:xlink="http://www.w3.org/1999/xlink" x="0px" y="0px"
	 viewBox="0 0 64 64" style="enable-background:new 0 0 64 64;" xml:space="preserve">
<style type="text/css">
	.st0{fill:#666666;}
</style>
<path id="keypad" class="st0" d="M13,22c-3.9,0-7-3.1-7-7s3.1-7,7-7s7,3.1,7,7S16.9,22,13,22z M31,22c-3.9,0-7-3.1-7-7s3.1-7,7-7
	c3.9,0,7,3.1,7,7S34.9,22,31,22z M49,22c-3.9,0-7-3.1-7-7s3.1-7,7-7s7,3.1,7,7S52.9,22,49,22z M13,40c-3.9,0-7-3.1-7-7s3.1-7,7-7
	s7,3.1,7,7S16.9,40,13,40z M31,40c-3.9,0-7-3.1-7-7s3.1-7,7-7c3.9,0,7,3.1,7,7S34.9,40,31,40z M49,40c-3.9,0-7-3.1-7-7s3.1-7,7-7
	s7,3.1,7,7S52.9,40,49,40z M13,58c-3.9,0-7-3.1-7-7s3.1-7,7-7s7,3.1,7,7S16.9,58,13,58z M31,58c-3.9,0-7-3.1-7-7s3.1-7,7-7
	c3.9,0,7,3.1,7,7S34.9,58,31,58z M49,58c-3.9,0-7-3.1-7-7s3.1-7,7-7s7,3.1,7,7S52.9,58,49,58z"/>
</svg>
