<?xml version="1.0" encoding="UTF-8"?>
<svg width="32px" height="32px" viewBox="0 0 32 32" version="1.1" xmlns="http://www.w3.org/2000/svg" xmlns:xlink="http://www.w3.org/1999/xlink">
    <!-- Generator: Sketch 48.2 (47327) - http://www.bohemiancoding.com/sketch -->
    <title>Userpic Icon</title>
    <desc>Created with Sketch.</desc>
    <defs>
        <linearGradient x1="50%" y1="0%" x2="50%" y2="90.5731824%" id="linearGradient-1">
            <stop stop-color="#BBBBBD" offset="0%"></stop>
            <stop stop-color="#66656A" offset="100%"></stop>
        </linearGradient>
    </defs>
    <g id="Mail-History" stroke="none" stroke-width="1" fill="none" fill-rule="evenodd" transform="translate(-325.000000, -179.000000)">
        <g id="#2" transform="translate(6.000000, 162.000000)" fill="url(#linearGradient-1)">
            <path d="M351,33 C351,41.8363636 343.836364,49 335,49 C326.163636,49 319,41.8363636 319,33 C319,24.1636364 326.163636,17 335,17 C343.836364,17 351,24.1636364 351,33 Z M330.085577,42.0236946 C329.718448,42.1222632 329.354947,42.2320968 328.993623,42.3461547 C327.985107,42.6657985 326.988926,43.0227576 326,43.3973182 C328.567724,45.6306007 331.949517,47 335.669416,47 C339.224615,47 342.47726,45.7552196 345,43.6958402 C343.689655,43.1044287 341.840226,42.5073847 341.840226,42.5073847 C339.641081,42.096917 338.975751,41.6068903 338.975751,41.6068903 C338.26979,41.2942871 338.390957,38.3386377 338.390957,38.3386377 C339.480009,38.2013457 339.419788,34.9521028 339.419788,34.9521028 C340.18597,35.4217117 340.246916,34.4430664 340.246916,34.4430664 C340.286822,34.071322 340.488525,33.3862704 340.488525,33.3862704 C341.235117,31.0959589 340.145339,31.6437186 340.145339,31.6437186 C340.750449,29.4125483 340.488525,27.4946853 340.488525,27.4946853 C340.357926,26.5399782 339.903005,25.745797 339.082407,25.1909967 C338.804521,25.0030123 338.502692,24.8488229 338.187078,24.7298365 C337.757551,24.5679024 337.312789,24.3489393 336.872379,24.2313611 C336.513232,24.1349047 336.143926,24.0785798 335.77317,24.0433767 C335.364685,24.0053574 334.948219,23.9870518 334.538282,24.0102858 C334.154466,24.0102858 333.973078,24.2454423 333.973078,24.2454423 C333.915034,24.3193688 333.419483,24.4094886 333.305571,24.4615891 C333.102417,24.5538212 332.904342,24.6573182 332.71062,24.7671518 C332.218696,25.0480722 331.781189,25.4106638 331.323367,25.7387564 C330.96567,25.9950347 330.511475,26.1668257 330.256081,26.5357538 C330.033337,26.8582139 329.910719,27.238407 329.841066,27.617192 C329.761981,28.0508937 329.711193,28.5634504 329.798259,29.0013765 C329.898385,29.5104128 330.039867,31.7810106 330.039867,31.7810106 C329.233055,31.624709 329.677092,32.7793695 329.677092,32.7793695 C329.838164,32.9948123 330.060183,34.1691866 330.060183,34.1691866 C330.261886,35.8723109 331.109329,35.1872592 331.109329,35.1872592 C330.967847,38.2013457 332.016993,38.3576473 332.016993,38.3576473 C332.15775,40.1192088 331.81529,41.1372814 331.81529,41.1372814 C331.559171,41.7892422 330.68198,41.8638727 330.085577,42.0236946 Z" id="Userpic-Icon"></path>
        </g>
    </g>
</svg>