<svg id="Layer_1" data-name="Layer 1" xmlns="http://www.w3.org/2000/svg" width="64" height="64" viewBox="0 0 64 64"><defs><style>.cls-1{fill:#666;}</style></defs><title>pic_mountains_albums</title><path id="pic_mountains_albums" class="cls-1" d="M61,60H3a1,1,0,0,1-1-1V15a1,1,0,0,1,1-1H61a1,1,0,0,1,1,1V59A1,1,0,0,1,61,60ZM4,58H60V16H4V58ZM16,34a6,6,0,1,1,6-6A6,6,0,0,1,16,34Zm0-10a4,4,0,1,0,4,4A4,4,0,0,0,16,24ZM57.71,44.29l-14-14a1,1,0,0,0-1.41,0L31,41.59l-5.29-5.29a1,1,0,0,0-1.41,0l-18,18a1,1,0,1,0,1.41,1.41L25,38.41,36.29,49.71a1,1,0,1,0,1.41-1.41L32.41,43,43,32.41,56.29,45.71A1,1,0,1,0,57.71,44.29ZM57,12H7a1,1,0,1,1,0-2H57A1,1,0,1,1,57,12ZM53,8H11a1,1,0,0,1,0-2H53A1,1,0,0,1,53,8Z"/></svg>