<svg id="Layer_1" data-name="Layer 1" xmlns="http://www.w3.org/2000/svg" width="64" height="64" viewBox="0 0 64 64"><defs><style>.cls-1{fill:#666;}</style></defs><title>user_plus_2</title><path id="user_plus_2" class="cls-1" d="M57,46H46V35a1,1,0,0,0-2,0V46H33a1,1,0,0,0,0,2H44V59a1,1,0,0,0,2,0V48H57A1,1,0,0,0,57,46ZM39.54,29.72a22.91,22.91,0,0,0-7.23-3.09,11,11,0,1,0-10.62,0A23,23,0,0,0,4,49a1,1,0,0,0,2,0A21,21,0,0,1,38.45,31.39,1,1,0,0,0,39.54,29.72ZM18,17a9,9,0,1,1,9,9A9,9,0,0,1,18,17Z"/></svg>