<?xml version="1.0" encoding="UTF-8"?>
<svg width="34px" height="23px" viewBox="0 0 34 23" version="1.1" xmlns="http://www.w3.org/2000/svg" xmlns:xlink="http://www.w3.org/1999/xlink">
    <!-- Generator: Sketch 48.2 (47327) - http://www.bohemiancoding.com/sketch -->
    <title>Combined Shape</title>
    <desc>Created with Sketch.</desc>
    <defs></defs>
    <g id="Graphics-/-Tab-Bar-Icons-/-Blue-/-Contacts" stroke="none" stroke-width="1" fill="none" fill-rule="evenodd" transform="translate(2.000000, -2.000000)">
        <path d="M31.9996793,24.4997017 L10.2362628,24.4997017 C10.2362628,24.4997017 10.1823707,22.4258327 11.5087146,21.1990089 C12.9139006,19.8986154 14.8220792,19.8648131 14.8220792,19.8648131 C16.9548082,19.7435226 18.7542047,18.2482689 18.7542047,18.2482689 L18.7542047,16.5482133 C18.7542047,16.5482133 16.1773651,15.8184818 15.3041139,14.9306749 C15.3041139,14.9306749 15.8749707,13.5079968 16.0236729,12.9940033 C16.1703791,12.4879633 16.1603991,11.8308073 16.093533,10.7640472 C16.0266669,9.69629298 15.8400406,7.72084817 16.0406389,6.72069846 C16.2412372,5.72054874 16.821076,4.10698713 17.7581993,3.60591809 C18.6953226,3.10683742 19.7951202,3.35538357 19.7951202,3.35538357 C19.7951202,3.35538357 20.4508071,2.88016333 21.3679704,2.68629733 C22.0825394,2.53418708 23.3010991,2.69126825 23.936826,3.12473274 C24.5735509,3.55919141 25.4358241,4.34658562 25.7761425,5.50779324 C26.1623691,6.82707621 26.1693551,8.40087044 26.0226489,9.46663633 C25.9408128,10.0611587 26.0006929,10.7600705 26.0456029,11.231314 C26.076541,11.5713251 26.2442052,12.5018819 26.5186556,13.3459447 C26.839014,14.3341642 27.2721466,15.0410294 27.2721466,15.0410294 C27.2721466,15.0410294 26.9208502,15.7140924 25.6643664,16.1077895 C24.3300385,16.525347 23.4827353,16.5482133 23.4827353,16.5482133 L23.4827353,18.2482689 C23.4827353,18.2482689 25.2821319,19.7435226 27.4138628,19.8648131 C27.4138628,19.8648131 29.3220415,19.8986154 30.7282255,21.1990089 C32.0545693,22.4258327 31.9996793,24.4997017 31.9996793,24.4997017 Z M10.8291754,20.4705698 C9.2293792,21.9499165 9.23536721,24.2942038 9.23836121,24.5 L-1.99813651,24.5 C-1.99813651,24.5 -2.1348627,21.1525804 -0.0660058084,19.9893844 C2.34117356,18.635305 4.62859276,18.506061 5.32918974,18.2803811 C5.98288065,18.0686198 6.68447564,17.8469166 6.68447564,16.9461854 C6.68447564,16.0464483 6.69545365,15.9291345 6.47389734,15.8088382 C6.05074475,15.5771932 5.7992484,15.2192867 5.74435832,14.940915 C5.64156418,14.4219507 5.5876721,12.9684528 5.45393991,12.7825402 C5.31920973,12.5946394 5.07869139,12.7547031 4.99885128,12.3291921 C4.91801317,11.9026869 4.91801317,11.5288735 4.83817305,11.3698039 C4.75833294,11.2097402 4.47689655,10.1787708 4.65154679,9.82384686 C4.80523901,9.50769616 5.0856774,9.6727308 5.10563743,9.47687644 C5.13956948,9.15774318 4.54076864,6.48040404 4.9449592,5.3460394 C5.36511779,4.16594228 5.82220243,4.002896 6.25034503,3.73546034 C6.67848763,3.46901887 6.95194001,2.78700823 7.96890343,2.27997408 C8.98586686,1.77393412 10.482869,2.06721858 10.9918497,2.27997408 C11.5008304,2.49372377 13.5337592,3.05245552 13.8281696,4.09237262 C13.8321616,4.10728538 14.3131983,4.70280196 14.5417406,5.3460394 C14.9459312,6.48040404 14.3471304,9.15774318 14.3820604,9.47687644 C14.4010224,9.6727308 14.6814608,9.50769616 14.836151,9.82384686 C15.0098033,10.1787708 14.7283669,11.2097402 14.6485268,11.3698039 C14.5686867,11.5288735 14.5686867,11.9026869 14.4888466,12.3291921 C14.4080084,12.7547031 14.1674901,12.5946394 14.0337579,12.7825402 C13.9000257,12.9684528 13.8451357,14.4219507 13.7423415,14.940915 C13.6874514,15.2192867 13.4369531,15.5771932 13.0128025,15.8088382 C12.7912462,15.9291345 12.8032222,16.0464483 12.8032222,16.9461854 C12.8032222,17.8469166 13.5048172,18.0686198 14.1575101,18.2803811 C14.4688865,18.3797996 15.1036154,18.4672878 15.9119965,18.6452469 C15.5567081,18.7575897 15.1884455,18.8480605 14.803217,18.8709268 C14.7104029,18.8729151 12.4958378,18.9285895 10.8291754,20.4705698 Z" id="Combined-Shape" fill="#007AFF"></path>
    </g>
</svg>