<?xml version="1.0" encoding="UTF-8"?>
<svg width="24px" height="24px" viewBox="0 0 24 24" version="1.1" xmlns="http://www.w3.org/2000/svg" xmlns:xlink="http://www.w3.org/1999/xlink">
    <!-- Generator: Sketch 48.2 (47327) - http://www.bohemiancoding.com/sketch -->
    <title>Emoji</title>
    <desc>Created with Sketch.</desc>
    <defs></defs>
    <g id="iPhone-X" stroke="none" stroke-width="1" fill="none" fill-rule="evenodd" transform="translate(-10.000000, -286.000000)">
        <path d="M22,286 C28.627417,286 34,291.372583 34,298 C34,304.627417 28.627417,310 22,310 C15.372583,310 10,304.627417 10,298 C10,291.372583 15.372583,286 22,286 Z M18.2038,292.795 C17.8328936,292.790581 17.4757063,292.935085 17.2122077,293.196158 C16.9487092,293.457232 16.8009098,293.813069 16.8019,294.184 C16.8019,294.958248 17.429552,295.5859 18.2038,295.5859 C18.978048,295.5859 19.6057,294.958248 19.6057,294.184 C19.6066902,293.813069 19.4588908,293.457232 19.1953923,293.196158 C18.9318937,292.935085 18.5747064,292.790581 18.2038,292.795 Z M29.9971,300.067 C29.3581,303.52 26.0254,306.403 21.9985,306.403 C18.0037,306.403 14.6905,303.562 14.014,300.148 C13.8769,299.296 14.5747,299.095 15.232,299.254 C17.4308704,299.88979 19.7112173,300.199092 22,300.172 C24.2836089,300.198477 26.5587746,299.890202 28.753,299.257 C29.392,299.095 30.0763,299.278 29.9971,300.067 Z M27.8278,300.547 C27.7654,300.571 27.7021,300.589 27.6382,300.61 C27.6316,300.613 27.8428,300.544 27.8365,300.547 C25.9390909,301.069345 23.977763,301.322817 22.0099,301.3 C19.6615,301.3 17.5612,301.039 16.1158,300.52 C15.0679,300.208 15.2689,301.441 16.0054,301.819 C17.8895613,302.676755 19.9395199,303.108994 22.0096,303.085 C24.472,303.085 26.6662,302.512 28.1155,301.771 C28.8013,301.33 28.9369,300.148 27.8278,300.547 Z M25.804,292.795 C25.4330662,292.790582 25.0758486,292.935076 24.8123027,293.196141 C24.5487567,293.457206 24.4008903,293.813041 24.4018,294.184 C24.3944012,294.689792 24.6600004,295.160362 25.0968376,295.415417 C25.5336747,295.670473 26.0740253,295.670473 26.5108624,295.415417 C26.9476996,295.160362 27.2132988,294.689792 27.2059,294.184 C27.2068087,293.813094 27.0589833,293.457305 26.7955026,293.196249 C26.532022,292.935193 26.1748821,292.790663 25.804,292.795 Z" id="Emoji" fill="#9B9B9B"></path>
    </g>
</svg>