<?xml version="1.0" encoding="UTF-8"?>
<svg width="14px" height="24px" viewBox="0 0 14 24" version="1.1" xmlns="http://www.w3.org/2000/svg" xmlns:xlink="http://www.w3.org/1999/xlink">
    <!-- Generator: Sketch 48.2 (47327) - http://www.bohemiancoding.com/sketch -->
    <title>Icon</title>
    <desc>Created with Sketch.</desc>
    <defs></defs>
    <g id="iPhone-X" stroke="none" stroke-width="1" fill="none" fill-rule="evenodd" transform="translate(-88.000000, -239.000000)">
        <path d="M96.5244154,257.290509 L97.2398242,258.567169 C96.7419421,258.757075 96.2161836,258.88999 95.6693021,258.957979 L95.6693021,261.390232 L98.5614068,261.390232 L98.5614068,261.400462 C98.571591,261.400044 98.5818262,261.399833 98.5921086,261.399833 C98.6840596,261.399833 98.7722342,261.416688 98.8539441,261.447595 L99.3493088,262.331582 C99.2890731,262.71081 98.9729892,263 98.5921086,263 C98.5818262,263 98.571591,262.999789 98.5614068,262.999372 L98.5614068,263 L91.2513204,263 L91.2513204,262.999491 C91.2421499,262.999829 91.2329385,263 91.2236888,263 C90.7997861,263 90.4561451,262.64179 90.4561451,262.199917 C90.4561451,261.758043 90.7997861,261.399833 91.2236888,261.399833 C91.2329385,261.399833 91.2421499,261.400004 91.2513204,261.400342 L91.2513204,261.390232 L94.1495655,261.390232 L94.1495655,258.957979 C90.640908,258.532933 87.9957337,255.432846 88.0000052,251.750828 C88.0000052,251.715624 88.0052245,251.683621 88.0058385,251.651618 L88.0058385,249.817746 C88.0019881,249.785265 88.0000052,249.752182 88.0000052,249.718616 C88.0000052,249.276742 88.3436462,248.918533 88.7675489,248.918533 C89.1914516,248.918533 89.5350926,249.276742 89.5350926,249.718616 C89.5350926,249.745237 89.5338454,249.771555 89.5314084,249.797508 L89.5314084,252.000454 L89.5274172,252.000454 L89.5274172,252.006855 C89.5274172,252.035658 89.5311014,252.064461 89.5314084,252.093264 L89.5314084,252.394095 L89.5458382,252.394095 C89.7739818,255.239545 92.007888,257.457336 94.7454865,257.556233 L95.0555741,257.556233 C95.5659147,257.538106 96.0587743,257.44631 96.5244154,257.290509 Z M99.4544967,254.912061 C99.8984507,254.172495 100.182822,253.316247 100.25645,252.394095 L100.274871,252.394095 L100.274871,249.728217 L100.280758,249.728175 C100.280723,249.724994 100.280705,249.721807 100.280705,249.718616 C100.280705,249.276742 100.624346,248.918533 101.048249,248.918533 C101.472151,248.918533 101.815792,249.276742 101.815792,249.718616 C101.815792,249.741647 101.814859,249.76445 101.813029,249.786986 L101.813029,251.750828 L101.803819,251.750828 L101.803512,251.750828 C101.804642,253.475522 101.224954,255.072705 100.247539,256.327259 L99.4544967,254.912061 Z M98.7017279,253.568732 L91.5586789,240.821834 C92.3052845,239.704111 93.5431126,239 94.9051355,239 C96.7349937,239 98.3406861,240.270887 98.8321963,242.108223 C98.9476199,242.528947 99.0196648,242.961304 99.0471085,243.397958 C99.0747401,243.881208 99.0471085,245.878216 99.0471085,246.358266 L99.0471085,250.403488 L99.0464945,250.403488 C99.0464945,250.886738 99.0464945,251.395591 99.0219331,251.878841 C99.003079,252.314629 98.9392608,252.747033 98.8315822,253.168576 C98.7946354,253.30463 98.7512552,253.43816 98.7017279,253.568732 Z M95.8846565,256.148848 C94.712205,256.45833 93.433322,256.203116 92.4364079,255.383206 C91.7288701,254.833144 91.2158798,254.054442 90.9774608,253.168576 C90.8692876,252.747152 90.8055624,252.31468 90.787417,251.878841 C90.7607064,251.395591 90.7631626,250.886738 90.7631626,250.403488 L90.7631626,247.009451 L95.8846565,256.148848 Z M88.1842078,240.494249 L89.5436625,239.48 L102,261.505751 L100.640545,262.52 L88.1842078,240.494249 Z" id="Icon" fill="#9B9B9B"></path>
    </g>
</svg>